<?xml version="1.0" encoding="utf-8"?>
<!-- Generator: Adobe Illustrator 15.0.1, SVG Export Plug-In . SVG Version: 6.00 Build 0)  -->
<!DOCTYPE svg PUBLIC "-//W3C//DTD SVG 1.1//EN" "http://www.w3.org/Graphics/SVG/1.1/DTD/svg11.dtd">
<svg version="1.1" xmlns="http://www.w3.org/2000/svg" xmlns:xlink="http://www.w3.org/1999/xlink" x="0px" y="0px" width="1920px"
	 height="1080px" viewBox="0 0 1920 1080" enable-background="new 0 0 1920 1080" xml:space="preserve">
<g id="light">
	<path fill-rule="evenodd" clip-rule="evenodd" fill="#BFFDFF" d="M471,50c-17.3,3.7-39.1,2.9-58,5c4.5-8.5,10.2-15.8,15-24
		C442.8,36.9,456,44.4,471,50z"/>
	<path fill-rule="evenodd" clip-rule="evenodd" fill="#BFFDFF" d="M55,45c16.1,4.6,38.4,2.9,46,16c-8.7,8.9-26.3,9.1-41,12
		c1.3-3.4,7.8-1.6,10-4c-4.3-3.7-17.9-3.4-16-10c5.6,1.4,8,6,16,5c-1.4-4.6-3.2-8.8-7-11c-6.1,1.2-12.1,2.6-15,7
		c-0.7,3.7,2.2,3.8,2,7c-17.1,3.8-13.5-13.1-22-18c4.1-2.7,10.4,0.9,14,2c0.5,4.7-2,6.4,0,10c4.4-5.9,11-9.6,20-11
		C61.9,46.1,55.1,48.9,55,45z M81,64c3.7-0.3,7.9-0.1,8-4c-0.8-5.3-9.1-8.2-14-6C77.8,56.6,79.1,60.5,81,64z"/>
	<path fill-rule="evenodd" clip-rule="evenodd" fill="#BFFDFF" d="M133,47c5.2,0.8,11,1,16,2c0,1.7,0,3.3,0,5
		c11.4,0.7,20.5-2.5,28,2c-4.4,2.9-19.8,0.8-27,0c0.2,6.2,4,8.6,4,15c-8.9,6.2-13.8-3.4-22-4c2.3-2.9,5.9,1.4,10,0
		c1.3-2-1.6-8.4-3-11c-10-0.6-23.3,2-29-3c7.3-1.7,17.9,2.1,28,1C139.4,48.6,133.3,50.7,133,47z"/>
	<path fill-rule="evenodd" clip-rule="evenodd" fill="#BFFDFF" d="M228,56c-3.6,6.4-10.6,9.4-17,13c8.7,1.9,21.4,2.6,28,1
		c2.2-2.3-4.9-3.7-5-7c9.6,3.1,20.3,5,24,14c-5,2.2-13.7,3.3-14-4c-17.4-1.8-47.6,7.9-52-5c11.1,7.5,25.2-8,19-14
		C213.7,50.4,223.1,55.3,228,56z"/>
	<path fill-rule="evenodd" clip-rule="evenodd" fill="#BFFDFF" d="M296,60c6.4,1.9,24.7,0.6,29,8C312.2,68.5,302.9,65.4,296,60z"/>
	<path fill-rule="evenodd" clip-rule="evenodd" fill="#BFFDFF" d="M129,61c1.1,9.4-10.9,7.3-15,4C118.5,63.5,123.5,58.1,129,61z"/>
	<path fill-rule="evenodd" clip-rule="evenodd" fill="#BFFDFF" d="M159,60c7.6,2.4,18.2,1.8,22,8c-2.2,0.8-3.9,2.1-7,2
		C168.7,67,162.8,64.5,159,60z"/>
	<path fill-rule="evenodd" clip-rule="evenodd" fill="#BFFDFF" d="M0,62c8.5,2.2,20,1.3,26,6c-5.8,9.2-17-3-26-3C0,64,0,63,0,62z"/>
	<path fill-rule="evenodd" clip-rule="evenodd" fill="#BFFDFF" d="M305,67c-5.1,5.7,9.2,5.8,11,11c0,1.3,0,2.7,0,4
		c-9.8,6.6-24.3,1.4-32-3c4.9-2.4,14.6,3.8,21,0c-0.1-5.6-8-3.3-9-8C296.7,67.4,300.3,66.6,305,67z"/>
	<path fill-rule="evenodd" clip-rule="evenodd" fill="#BFFDFF" d="M375,68c3.2,1.4,7.4,1.9,11,3c2.4,2.3-1.6,2.7-2,5
		c4.4-0.4,7.7,0.3,10,2c-2.7,5.9-14.2-3-17,3c3.9,2.5,13.2-0.5,14,5c-7,1.7-16-3.1-19,1c3.5,6.6,22.3,6.7,28,2c0.2-2.6-5.1-4.8-3-6
		c5.1,0.5,8.3,3.1,10,7c-7.6,11.7-35.9,6-45-1c-0.5-3.1,1.4-3.9,2-6c-4.6-0.8-10.4-0.3-11-5c5.7-5.2,10.7,6.4,17,0
		c-2.2-3.8-10-2-11-7c5.3,0.4,8.2,3.1,14,3C377,73.3,373.1,69.3,375,68z"/>
	<path fill-rule="evenodd" clip-rule="evenodd" fill="#BFFDFF" d="M293,72c-5.1,3.9-19.4,10.7-24,3c-0.2-1.2,0.2-1.8,1-2
		C274.8,74.2,284.6,72.7,293,72z"/>
	<path fill-rule="evenodd" clip-rule="evenodd" fill="#BFFDFF" d="M320,75c5.5-1.9,13.4,2.6,17,6c-0.4,3.6-5.2,2.8-9,3
		C325.8,80.5,323.5,77.2,320,75z"/>
	<path fill-rule="evenodd" clip-rule="evenodd" fill="#BFFDFF" d="M428,83c10-1,21.6,5.1,34,5c3.9-0.9-3.3-3.7,0-4
		c5.1-0.8,6.6,2.1,11,2c2.4,2.4-1.5,1.9-1,5c6.7,0.6,14.8-0.2,17,5c-7.8,0.1-13.4-1.9-19-4c-6,12.1-25.1,16.1-44,12
		c6.4-2.3,17.5,0.2,23-3c-4.8-2.2-13.3-0.7-14-7c4.3-5.1,16.7-2.6,24-2C452.2,85.5,433.8,90.5,428,83z M445,98c4.5,0.2,9.2,0.5,9-4
		C451,92,444,92.8,445,98z"/>
	<path fill-rule="evenodd" clip-rule="evenodd" fill="#BFFDFF" d="M504,97c4.6,1.5,18,7.1,18,1c3-2.9,6.9,1.7,10,2
		c0.5,2.1-1.4,1.9-3,2c3.8,3.9,15.6-0.2,17,6c-12.8,0.4-22.1-6.3-33-2c12-0.1,18.8,11.5,31,5c0.3,2.4,3.5,1.9,3,5
		c-11.1-1.9-24.7,0.5-34-1c0.2-1.1,2-0.7,2-2c-4.6,0.1-9.8-0.4-13,1c6.3,6.4,23.3,2.1,28,10c-14-1-28.4-1.6-35-10
		c4.7-3.9,14.5-2.9,23-3c-5.1-7.8-21.2,1.1-29-3c4.6-4.8,15.8-2.8,23-5C509.9,100.4,502.8,102.8,504,97z"/>
	<path fill-rule="evenodd" clip-rule="evenodd" fill="#BFFDFF" d="M570,113c3.6-0.3,4.8,1.8,8,2c1.2,1.5,1.2,2.5,0,4
		c4.9-0.5,14.9,4.4,15-3c4.4-0.4,5.1,2.9,9,3c0.7,2.7-2.1,1.9-3,3c2.8,2.5,8.8,1.9,10,6c-1,8.7-12.7,6.6-15,14
		c-9.1-1.6-19.1-2.3-26-6c-1.1-3.1,1.6-2.4,2-4c-4.6-3.3-17.4,1.5-22-4C548,116.1,572.5,124.1,570,113z M575,125
		c3.1-1.3,7.6-1.1,9-4C579.6,120.9,574.4,120,575,125z M555,127c3.7,2,6.7,0.1,11,0c-0.8-2.8,1.4-2.6,1-5
		C561.5,122.1,556,122.3,555,127z M575,131c9.2,1.6,23.2,6.8,25-5C592.7,121.9,580.3,126.7,575,131z M584,136c-2.5-1.8-5.2-3.4-10-3
		C574.3,136.4,581.8,137.8,584,136z"/>
	<path fill-rule="evenodd" clip-rule="evenodd" fill="#BFFDFF" d="M712,116c16.8,2.9,34.4,5,48,11c-16.6,2.1-29.5,7.8-46,10
		C713.7,129.6,713.2,122.4,712,116z"/>
	<path fill-rule="evenodd" clip-rule="evenodd" fill="#BFFDFF" d="M641,134c-2.7,3.2-8.3,1.2-12,0C631.1,125.4,635.2,134.8,641,134z
		"/>
	<path fill-rule="evenodd" clip-rule="evenodd" fill="#BFFDFF" d="M631,137c-7.3,2.7-14.6,5.4-22,8C612,138,621.7,137.7,631,137z"/>
	<path fill-rule="evenodd" clip-rule="evenodd" fill="#BFFDFF" d="M829,142c6.9,17.1,28.2,19.8,41,31c6.9-2.1,16.4-1.6,17-10
		c10.9-0.6,15.2,5.4,17,14c-6.5,1.5-13.2,2.8-20,4c5.1,7.5,20.3,5,22,16c-13.2,14.5-26.3-8-36-13c-42.4,15.1-109.3,28.3-150,2
		c19.2-0.3,44.3,9.8,71,6c-5.5-4.1-15.8-3.5-18-11c9-19.3,58.5-18,70-2c5.1,0.1,7.9-2.1,13-2c-12.3-11.3-30.5-16.8-45-26
		C810.8,145.4,820.3,139,829,142z M793,184c9.6,6.2,29.6,1.5,36-5C820.1,172.9,797.8,176.3,793,184z"/>
	<path fill-rule="evenodd" clip-rule="evenodd" fill="#BFFDFF" d="M887,227c15.3,1.1,27.1,5.5,42,7c-12.7,5-28.5,6.9-43,10
		C886.8,238.8,887.3,233.3,887,227z"/>
	<path fill-rule="evenodd" clip-rule="evenodd" fill="#BFFDFF" d="M819,259c-2.8,4.1,8.1,1.5,8,6c-6.3-1.1-12.3-2.4-19-3
		C809.7,259,814.8,259.5,819,259z"/>
	<path fill-rule="evenodd" clip-rule="evenodd" fill="#BFFDFF" d="M852,262c2.6,0.9-0.7,3.9,2,8c-4.2-0.1-5.6,1.8-9,0
		C844.2,264.2,848.5,263.5,852,262z"/>
	<path fill-rule="evenodd" clip-rule="evenodd" fill="#BFFDFF" d="M817,269c10.1-0.1,14.3-7.2,25-4c-9.8,3.2-26.8,12.5-37,3
		C810.5,264.6,813.9,263.3,817,269z"/>
	<path fill-rule="evenodd" clip-rule="evenodd" fill="#BFFDFF" d="M835,271c-0.8,5.8-10.3,7.4-16,5C824.1,274.1,829.5,272.5,835,271
		z"/>
	<path fill-rule="evenodd" clip-rule="evenodd" fill="#BFFDFF" d="M843,280c-0.1,1.9-3.3,0.7-3,3c5,3.9,8.5-2.1,12-3
		c3.8-0.2,0.4,0.8,1,3c3.1,1.9,9-2.1,12,0c-2.7,5-11.4,2.1-12,7c-5.5,0.5-4.3-5.7-11-4c-3,0.9,2.3,1.5,1,4c-3.1-0.7-2.9,1.7-6,1
		c-1.5-1.5-3-3-4-5c-2.7,1.3-7.7,0.3-9,3c3,7.8,15.4,4,22,2c-4.7,6.5-25.5,7.4-30,0C819.6,281.9,833.7,283.4,843,280z"/>
	<path fill-rule="evenodd" clip-rule="evenodd" fill="#BFFDFF" d="M804,307c-7,1-23.4,7.8-25-1C786.2,302.2,798,302.5,804,307z"/>
	<path fill-rule="evenodd" clip-rule="evenodd" fill="#BFFDFF" d="M779,310c-29.1,4.2-63.3,13-93,10C717.5,317.8,745,303.4,779,310z
		"/>
	<path fill-rule="evenodd" clip-rule="evenodd" fill="#BFFDFF" d="M807,311c-4.9,1.3-19.1,6.4-22,0C793.1,312.5,801.9,306.1,807,311
		z"/>
	<path fill-rule="evenodd" clip-rule="evenodd" fill="#BFFDFF" d="M208,311c14,2.3,26.6,6.1,41,8c-10.2,4.8-25.5,4.5-38,7
		C210.2,320.8,209.1,315.9,208,311z"/>
	<path fill-rule="evenodd" clip-rule="evenodd" fill="#BFFDFF" d="M783,312c-21.4,8.6-53.2,11-80,11C727.2,316.9,759,318.3,783,312z
		"/>
	<path fill-rule="evenodd" clip-rule="evenodd" fill="#BFFDFF" d="M810,315c-5.8,1.4-14.3,3.7-20,2C794.9,315,804.4,313,810,315z"/>
	<path fill-rule="evenodd" clip-rule="evenodd" fill="#BFFDFF" d="M768,319c-9.2,3.5-23.6,7-35,5C743.9,321.6,756.2,320.5,768,319z"
		/>
	<path fill-rule="evenodd" clip-rule="evenodd" fill="#BFFDFF" d="M845,323c-0.1,1.6-0.2,6.4-6,5c0.8,2.6,3.2,3.5,7,3
		c-1.7,2.3-5.6,2.4-9,3c-1.3-4.1-3.3-7.4-10-6c-1-3.4,3.1-1.6,5-2c-4.5-5.4-10.9-0.1-10,6c-2.7,0-5.7,0.4-7-1
		c-0.4-15.4,18.2-6.7,26-5c-0.8-4.5-6.2-4.5-10-6c10.5-2.5,18.4,4.6,28-1c-0.1,1.9-3.3,0.7-3,3c0.6,3.6,6.7,1.7,9,1
		c-0.7,3-4,3.4-8,3c-2.2,0.1,1.3,2.5,0,5c-1.7,0-3.3,0-5,0C851.7,326.3,849.2,323.8,845,323z"/>
	<path fill-rule="evenodd" clip-rule="evenodd" fill="#BFFDFF" d="M784,372c6.2,2.1,7.1,9.6,17,8c3.2-4.4,6.2-9.1,15-8
		c-6.8,9.2-24.3,18-33,4C782.9,374.2,784.2,373.9,784,372z"/>
	<path fill-rule="evenodd" clip-rule="evenodd" fill="#BFFDFF" d="M824,376c-4.1,2.2-4.3,8.3-12,7C814.1,378.8,816.5,374.8,824,376z
		"/>
	<path fill-rule="evenodd" clip-rule="evenodd" fill="#BFFDFF" d="M769,385c0.7,0,1.3,0,2,0c3.7,4.7,8.1,8.6,15,10
		c4.7-2,6.5-6.9,15-5c-11.2,11.6-31.9,5.8-46,4c5.5-0.2,12,0.7,16-1C773,391.6,767,389.8,769,385z"/>
	<path fill-rule="evenodd" clip-rule="evenodd" fill="#BFFDFF" d="M875,400c-12.2,2.1-27,1.6-40,3C845.3,388.7,859.5,392.2,875,400z
		"/>
	<path fill-rule="evenodd" clip-rule="evenodd" fill="#BFFDFF" d="M760,402c1.7,2.6,6.8,1.8,6,7c2.3,0,4.7,0,7,0
		c-9.8,3.3-28.3,6.7-38,1c2.6-3.6,0.1-6,3-9c4,5.1,31.7,2.3,9,4c3.5,2.1,11.5,4.1,16,2c-1.1-5.2-9.8-2.9-12-7c8.3-1,37.1,5.5,20,5
		C767.2,404.1,763.9,402.7,760,402z M757,410c-5.6-0.1-9.2-2.1-15-2C742.7,412.3,753.7,411.6,757,410z"/>
	<path fill-rule="evenodd" clip-rule="evenodd" fill="#BFFDFF" d="M723,413c4.4-0.1,9.6-1,9,4C728.7,416,723.4,416.9,723,413z"/>
	<path fill-rule="evenodd" clip-rule="evenodd" fill="#BFFDFF" d="M746,416c-3,1.7-6.9,2.4-10,4c0.7,2.3,5.6,0.4,8,1
		c-9.1,3.4-14.3,2.3-26,5c2.2-2.2,5.8-2.8,9-4c-5.4-2.6-13.8-2.2-19-5C719.6,414.9,732.1,422.6,746,416z"/>
	<path fill-rule="evenodd" clip-rule="evenodd" fill="#BFFDFF" d="M703,421c6.8-0.7,10.7,1.9,16,0C716.4,423.5,704.3,426.4,703,421z
		"/>
	<path fill-rule="evenodd" clip-rule="evenodd" fill="#BFFDFF" d="M697,424c-0.2,1.8-1.7,2.3-4,2c5,3,9.9,6.1,18,6
		c-6.5,5.5-16.1-0.5-20-4c-4.4,0-5.9,2.8-10,3c0.4,3.3,5.8,1.6,9,2c-2.3,1.8-19.3,1.5-25,0C677.8,433.3,681.9,423.8,697,424z"/>
	<path fill-rule="evenodd" clip-rule="evenodd" fill="#BFFDFF" d="M658,435c4-0.7,5.7,1,9,1c-3.3,1-4,4.7-9,4
		C658,438.3,658,436.7,658,435z"/>
	<path fill-rule="evenodd" clip-rule="evenodd" fill="#BFFDFF" d="M654,437c2.1,1.2-5.1,1.4-7,2c2.2,4.5,13.2,0.2,17,3
		c-7.2,2.5-18.5,0.5-25-1C639.4,435.1,648.2,437.5,654,437z"/>
	<path fill-rule="evenodd" clip-rule="evenodd" fill="#BFFDFF" d="M632,444c4.4-3,10.6,0.7,16,0C644.8,445.8,635.2,445.5,632,444z"
		/>
	<path fill-rule="evenodd" clip-rule="evenodd" fill="#BFFDFF" d="M674,444c-1.9,1.1-11.3,3.3-18,3C659.1,443.1,667.2,444.2,674,444
		z"/>
	<path fill-rule="evenodd" clip-rule="evenodd" fill="#BFFDFF" d="M633,448c0.9,4.1-4.5-1.2-6,2c1.7,2.3,7.6,0.4,11,1
		c3.1,1.5-4.3,0.9-6,1c0.9,1.7,3.1,2.2,6,2c-6.1,2.8-12.5-1.1-19,1c-1-3,2.2-1.8,4-2c-2.5-5.1-8.6,2.7-13-1c1.5-1.5,4.4-1.6,7-2
		c-4.1-3.2-11.8-1.2-16,1c1.1,2.6,5.4,2,9,2c-0.2,2.2-13.4,1-16-1C602.4,442.1,618,449,633,448z"/>
	<path fill-rule="evenodd" clip-rule="evenodd" fill="#BFFDFF" d="M55,466c-5.4-3.6-16.1-1.9-23-4c8.8-2.8,19.4,1.3,28,2
		c-0.6,5.1-9.1,2.2-14,3c5,2.3,14.3,0.3,21,1c-2.6,2.1-7.2,2.1-12,2c0.9,1.5,2.5,2.1,5,2c-12.4,1.7-17.6,0.8-32-2
		c6.1-2.8,13.9,1.4,22,0c-7.8-3.3-19.4-1.8-26-4C36,464.6,42.9,465,55,466z"/>
	<path fill-rule="evenodd" clip-rule="evenodd" fill="#BFFDFF" d="M461,474c0.4,2.1-0.7,2.6-1,4c2.7,0,5.3,0,8,0
		c-1.6,1-12.3,3.6-17,2c0.8-2.2,4.7-1.3,5-4c-2.5-4.9-17-3.7-21-1c1.6,3.8,6.4,4.3,11,5c-7.3,2.4-6.7,2-15,3c0.1-2.6,3.3-2,6-2
		c-1-3.3-10.5,1.8-10-3c3.7-0.7,4.3,1.7,8,1c-0.7-2.6-5.7-1-6-4C434.4,468.5,454,470.3,461,474z"/>
	<path fill-rule="evenodd" clip-rule="evenodd" fill="#BFFDFF" d="M159,474c-2.7,3.2-8.9-2.4-12,1c1.3,1.7,4.4,1.6,6,3
		c-3.8,4.5-9.3-2.2-14-3C142.3,469.8,153.9,472.2,159,474z"/>
	<path fill-rule="evenodd" clip-rule="evenodd" fill="#BFFDFF" d="M125,474c4.3-3.6,8.4,1.5,12,2C133.9,478.4,128.2,474.8,125,474z"
		/>
	<path fill-rule="evenodd" clip-rule="evenodd" fill="#BFFDFF" d="M405,474c-4.3,2.3-11.8,1.6-14,6c7.5,2.6,18.7-3.1,27,0
		c-11.8,0.9-25.9,3.6-37,2C384.8,475.1,395.4,475.1,405,474z"/>
	<path fill-rule="evenodd" clip-rule="evenodd" fill="#BFFDFF" d="M171,476c-4.2,1.8-11,1-16,2C158.5,475.9,166.3,473.7,171,476z"/>
	<path fill-rule="evenodd" clip-rule="evenodd" fill="#BFFDFF" d="M221,478c-5.1,0.4-17.5,3.5-13,7c-1.7,1.6-8.3-0.3-11-1
		c2.7-2.6,7.5-3.1,11-5c-3.7-2.3-11.7-0.3-17-1c-2.4,0,0.4,2.7,2,2c-4.6,2.5-10.4-2.2-15-3C187.3,475.4,210.5,476.7,221,478z"/>
	<path fill-rule="evenodd" clip-rule="evenodd" fill="#BFFDFF" d="M259,479c-0.1,2.2-4.2,0.4-6,1c0,1,0,2,0,3c3.8,2.8,14.1-0.8,18,2
		c-2.6,0.9-11.3-0.6-17,0c0.4,1.2,1.3,2.1,3,2c-5.9-0.1-19.3-1.4-26-4c3.3,2,10.1,0.5,15,1c3.1-0.4-2.6-5.1,1-6
		C251.3,474.7,254.4,479.5,259,479z"/>
	<path fill-rule="evenodd" clip-rule="evenodd" fill="#BFFDFF" d="M306,477c3.2,1.4-3.5,1-5,1c0.7,3.3,6.9,1.1,8,4
		c-2.7,2.9-4.9-3-10-1c-0.1,1.8,1.2,2.1,1,4c6.3-0.1,12.2-0.4,13-6c6.4-1.1,8.3,4.4,8,7c-1.2,2.7-5.2,0-7,0c0-2,2.7-1.3,2-4
		c-4,2-7.8,4.2-14,4c2.1,4-19-0.2-23-3C284.1,477.1,297.1,479.1,306,477z M286,484c1.9,0.2,6.6,2.6,8,0c-1.3-0.4-2-1.3-2-3
		C289,481,285.9,480.9,286,484z"/>
	<path fill-rule="evenodd" clip-rule="evenodd" fill="#BFFDFF" d="M365,477c-5.1,2.6-13.7,1.7-16,7c2.6,1.3,13.9-1.7,18,1
		c-7.4-0.2-19.1,2.2-28,1c-0.9-3.2,3.3-1.4,3-4c-3.3-2.7-12.7,0.7-14-4C343.3,481.3,349.3,478.6,365,477z"/>
	<path fill-rule="evenodd" clip-rule="evenodd" fill="#BFFDFF" d="M153,482c-4.7,2-12.5-1.5-19-1C138.1,476.3,147.1,482,153,482z"/>
	<path fill-rule="evenodd" clip-rule="evenodd" fill="#BFFDFF" d="M228,480c4-3.2,9.1,0.9,13,1C237.4,483.9,231.7,480.4,228,480z"/>
	<path fill-rule="evenodd" clip-rule="evenodd" fill="#BFFDFF" d="M271,480c-2.8,1.1-7.4,3.8-10,2C262.5,478.2,267.1,479.1,271,480z
		"/>
	<path fill-rule="evenodd" clip-rule="evenodd" fill="#BFFDFF" d="M393,485c3.3-3,33.2-2.2,10,0C399.7,485,396.3,485,393,485z"/>
	<path fill-rule="evenodd" clip-rule="evenodd" fill="#BFFDFF" d="M108,493c-10.7,1.6-22.7,1.9-35,2C76.1,478.5,96,492.2,108,493z"
		/>
	<path fill-rule="evenodd" clip-rule="evenodd" fill="#FFA508" d="M412,959c3.5,1.2,6.3,3,6,8C413.2,967.1,413.5,962.1,412,959z"/>
	<path fill-rule="evenodd" clip-rule="evenodd" fill="#BFFDFF" d="M0,413c6.9,3.8,15,6.3,22,10c71.2,7.1,140.9,15.8,214,21
		c-66-1.8-139-13.6-208-19c7.7,3.6,15.1,7.5,24,10c-17.3-2.7-34.2-14.5-52-20C0,414.3,0,413.7,0,413z"/>
	<path fill-rule="evenodd" clip-rule="evenodd" fill="#BFFDFF" d="M0,368c138.6,45.6,398.1,63.2,513-16c32-31.2-5.5-70.9-33-82
		c38.5-10.9,80-18.6,118-30c-5.3,0.7-9-3-5-6c-5.3,0-11.3,0.6-13-3c4.9-2.1,17.9,3.1,21-3c-56.1,3.6-99,20.3-151,28
		c-117.6-46.1-306.3-61.6-450-30c0-0.7,0-1.3,0-2c129.1-28.5,291.3-17.2,404,15c16,4.6,34.3,14.4,48,15c29.9,1.3,60.8-18.4,88-18
		c-20-19.4-44.1-34.6-66-52c-65.9-9.7-131.2-19.5-198-30c-21.3-3.4-44.6-10.1-65-10c-34.8,0.2-71.3,11.5-106,17
		c-35.1,5.5-69.8,10.8-105,17c0-0.7,0-1.3,0-2c44.2-6.8,88.1-13.9,133-21c43.3-6.9,88.9-20.2,132-21c29.9-0.6,62,9.1,92,14
		c30.5,5,60.9,9.8,92,14c31.8,24.2,63.7,48.3,95,73c10.9-2.7,22-5.4,34-7c-3.2-3.5-11-2.3-13-7c9.8-6.8,27.8,3.9,40,1
		c-12.8-6-40.1-1.3-53-10c5.5-0.5,9.4,0.6,14,1c-3.2-7.1-18.6-10.8-31-12c-0.1-4.1,7-1,10-2c-0.9-1.8-4.1-1.3-3-5
		c19.2-1.2,30.1-1.4,51-1c8.9-11.5,38.9-14.2,54-10c4.4-8.2,19.6-5.7,29-9c-0.4-6.9-2.5-12.1-2-20c23.3-4.6,45.9-11.5,69-17
		c22.6-5.3,47.6-15.5,70-16c22.1-0.5,47.3,10,70,15c23.6,5.2,46.8,9.4,70,15c-3.3,18.7-4.7,39.3-8,58c-43.1,10.2-87.5,19.1-131,29
		c-31.9-3.2-65.3-18.4-96-13c0,3,7.4-1.4,6,3c-28.3,3.6-57,1.9-81,3c-2.8,4.6,6.6,4.4,10,6c-26.2,4.4-59.9,4.2-87,13
		c42.4,35.6,87.5,68.5,132,102c-20.3,14-37.1,31.6-61,42c20.5-12.5,37.8-28.2,58-41c-4.8-4.8-11.2-8.1-16-13
		c-26.6,18-50.7,38.6-77,57c1.1,2,5.4-1.2,9,0c-5.1,1.9-19.7,3-29,4c37.8-10.2,61.2-43.5,94-62c-37.2-29.8-75.1-58.9-114-87
		c-26.7,5-50.8,12.5-77,18c20.1,15.3,49.3,26.5,44,64c-1.5,0.9-2.1,2.5-2,5c-3.3,3.7-6.4,7.6-9,12c-114.1,82-376.5,63.3-518,19
		C0,369.3,0,368.7,0,368z M812,123c-44.4,10.9-88.8,21.9-134,32c-1.3,12.5,8.7,26.3,7,27c10.3-0.4-0.3-16.6,2-25
		c20.8-5.2,41.2-9.8,63-15c20.4-4.8,43.5-15,64-15c20.1,0,43.3,8.7,64,13c21,4.4,41.7,9.4,62,15c-3.2,16.4-3.7,35.6-7,52
		c-39.4,2.9-80.3,25.2-119,26c-36.2,0.7-70-19.7-109-19c36.8,3.7,72,22.7,109,22c20.5-0.4,42.4-9.5,63-14c21.9-4.7,43.4-8.4,64-14
		c2.5-18.5,4.9-37.1,7-56C902.7,142.3,858.1,131.9,812,123z M811,129c-39.6,10.1-80.2,19.1-120,29c0.4,10.3,2.8,18.5,3,29
		c8.2,8.8,15.9,18.1,25,26c32.6,2.7,62.6,18.6,95,18c39.4-0.8,77.3-21.9,116-25c1.3-17.3,4.2-33.1,5-51C894,146,853.8,136.2,811,129
		z M447,163c-61.7-8.3-120.9-19.1-182-28c-13.6,4.1-32.2,3.2-44,9c83.8,11.8,166,25.3,249,38C466.4,175.6,453.7,169.6,447,163z
		 M657,186c5-1,16-1.3,17-3c-2.7,0.1-5.2,0.2-3-2C663.7,179.4,659.1,185.8,657,186z M647,187c-8.3,2.5-9.9-2.9-18-3
		c-3.3,2,2.5,4.3,0,5c-6.5,2.2-16.3,1.4-20,4c6.6-0.3,5.9,5,15,4c0.6-3.2-0.3-5-2-6c10.1-4.3,18,4.1,23,1c-1.5-0.9-3.2-1.5-3-4
		C643.5,188,650.2,188.4,647,187z M664,194c-0.8-3.2-2.8-5.2-6-6C657.5,192.5,659.5,194.5,664,194z M587,198c-0.7-3.1,8.7-1.2,6-3
		C582.2,195.7,565.6,198.8,587,198z M583,207c-3.7-1.9-5.7-5.7-10-7C574.7,203.4,579.7,208.6,583,207z M650,201
		c-0.2,1.4-1.6,1.7-2,3c4-0.4,4.6,1.7,2,3c4.6,0,9.9,0.6,12-2c-7.3,1.6-9.6-7-15-4C648,201,649,201,650,201z M615,208
		c5.5,0.5,8.4-1.6,8-7c-3.3,0-6.7,0-10,0C612.4,204.6,613.7,206.3,615,208z M639,205c-8.8,13-38.8-1.4-49,10c3.2-0.6,4.7,0.7,7,1
		c10.7-10.1,39.1,0.4,51-10C644,206.7,642.3,205,639,205z M645,224c12.9,1.2,21.1,2.1,31-3C665.2,221.5,653,220.7,645,224z M615,237
		c1.5-2.2,6.5-0.8,8-3C620.3,230.1,612.3,233.5,615,237z"/>
	<path fill-rule="evenodd" clip-rule="evenodd" fill="#BFFDFF" d="M550,462c0.2,2.5-1.6,3.1-2,5c3.5,0.8,3.8-1.5,7-1
		c0.4,4.6-9-0.6-5,5c-7.4-1.1-11.1-0.3-19,0c2.7-2.6,9.5-1.1,12-4c-9.4-1.7-15.8,3.8-25,2c8-1.5,6.2-6.5,17-5
		c-5.1-5.4-16.2,3.9-23,0c6.7-2.4,18.7-4.5,27-2c-0.9,1.8-1.9,3.5-5,3C540.9,469.6,542.5,460.2,550,462z"/>
	<path fill-rule="evenodd" clip-rule="evenodd" fill="#BFFDFF" d="M95,479c-2-2.2-0.9-3.6-7-3c0.6-3.6,5.6,0.3,10-1
		c-1-2.3-4.6-2.1-8-2c-1.9-2,8-0.6,11-1c-2.8-4.1-13.7-3.5-19-2c0.4,1.2,1.3,2.1,3,2c-2.1,2.7-6.6-0.6-8-2c6.6-6.4,23.1-1.7,31,0
		c0.3,1.6-0.9,1.7-1,3c3,0.3,6.8-0.2,7,3c-4.6,1-7-3.5-10-1c1.2,1.4,3.4,1.9,6,2C108.9,477.6,100.3,477.6,95,479z"/>
	<path fill-rule="evenodd" clip-rule="evenodd" fill="#FFA508" d="M402,1080c-2.3,0-4.7,0-7,0c2.3-1.7,5.4-2.6,9-3
		c8.3-20,19.8-36.8,28-57c-0.2-26.8,1.7-51.6,1-79c-14.3-6.7-29.1-18.3-42-23c0.6,3.2,4.7,9.4,6,15c-5.2-0.3-9.2-8.4-12-6
		c10.8,6,14.6,19.7,23,29c-12.6-5.7-22.5-19.5-35-22c1.2-0.3,3.4,2.9,1,3c-6.5-2.5-11.8-3.3-21-9c-21.8,38.1-51.4,91.8-111,89
		c-38.4-1.8-57.1-28.7-75-54c-10.3,22.7-30.2,41.1-57,44c-10.1-25.5,29.6-25.2,31-49c-19.4-0.6-28-17.3-25-37c-1,22,8.5,33.5,26,37
		c-3.4,19.3-21.4,24-32,36c20.5-8.2,33.2-24.1,40-46c-1.9-3.2-7.7,6-14,5c-28.5-7.1-20.7-66.9,8-68c0.6-5.2-1.8-7.6-1-13
		c-14.5-0.2-26.7,1.9-40,3c-3.6-6-13.3-22.5-3-27c6.1,10.6,25.7,7.6,42,8c0.3-31,3.8-58.8,11-83c-16.1-16-44.3-14.2-51-40
		c4.1,0,4.5,8.8,8,6c-6.3-4.7-7-15-11-22c-1.4,3.8,2.6,7.3,0,9c-1-10.5-2.2-14.5-3-28c-5,0,0.4,10.4-3,12c-3.6-20.4-3-43.2,9-54
		c5.6,1.9,5.9,0.8,10,1c20.7,19.3,42.5,37.5,67,53c21.5-32.1,46.7-71.6,97-71c43.3,0.5,67.3,34.5,83,64c15.3,2.8,31.6,0.2,41-6
		c4.5,8.5,10.8,15.2,13,26c-10.4,15-15.7,35-25,51c16.5,10.3,41.8,50.5,11,64c-6.6-17.4-8.7-39.3-17-55c-5.8,28.5-2,66.7-11,92
		c18.9,18.4,43.4,42,63,53c1.6-131.7,5.6-261,7-393c-49.9-1.5-101.8-0.9-152-2c-6,8-10.7,17.3-17,25c-66.4,1.9-136,0.6-204,1
		c-3.1,173.9-6.3,347.7-10,521c-0.7,0-1.3,0-2,0c4.4-174,5.6-351,11-524c68,0,136,0,204,0c6.3-7.7,10.9-17.1,17-25
		c52.4-0.1,104.4,0.3,155,2c-3,132.3-5.3,265.4-8,398c12.2,12.2,31.3,22.7,40,35c-13.9-7.1-26.2-15.8-40-23
		c-1.7,41.6-1.2,85.4-3,127C422.5,1073.8,411.4,1076,402,1080z M166,960c-9.1,20.2-30.4,36.9-55,45C137,1001.7,157.7,984.4,166,960z
		 M349,689c-17.2-24.8-40-50.5-80-47c-44.5,3.9-70.5,40.4-89,70c32.4,29.2,61.1,62.2,97,88c1.8-5.5,1.6-13.1,6-16
		c-1.1,6.6-4,11.3-5,18c28.4,29.3,65,50.4,93,80c-2.5-0.8-6.2-6.6-8-2c20.5,35.9,63,55,97,74c-30.6-25.7-64.3-48.4-90-79
		c5-25.6,9-52.4,8-84c-16.2,16.8-32.5,33.5-57,42c-0.8-3.2-0.6-7.4-2-10c29.8-18.6,70.3-52.3,46-98c-2.3,1.7-5.9,2.1-10,2
		c-6.7-6.6-5.4-21.3-9-31c-1.5,8.2,3.4,15.2,1,21C345.9,707.6,342.6,695.1,349,689z M368,725c2,11.4,6.3,20.4,7,33
		c7.8-9.5,10.9-23.7,14-38C381.9,721.5,374.6,722.9,368,725z M215,780c-6.8-4.5-14.1-13.9-21-15C201.9,768.4,206.5,780.5,215,780z
		 M213,872c-2.1,15.4-26.8-2-38,1c-5.8,27.1-1.2,59.2-7,84c1.1-1,1.7-7.5,3-5c-0.3,3.4-2.5,4.8-2,9c16.6,24.3,33.9,49.4,69,53
		c61.1,6.3,91.5-48.6,113-86c-33.3-22.4-59.6-57-89-80c-2.4,7.9-3.4,17.2-8,23c1.5-9.9,5.3-17.4,8-26c-31.4-27.8-71.2-51.9-108-71
		c-5.8,24.8-10.3,51-10,82c3.6,2.1,10.8,0.5,16,1c2.9-10.5,0.7-22.9-6-27c2.4-1.3,0.8-6.5,4-7c17.5,2.3,26.9,13.9,19,34
		c7.6,2.8,16.7-1.1,24-2C207,858.7,214,864.8,213,872z M226,789c-2.1-3.6-4.7-6.6-9-8C218.2,785.4,221.9,787.4,226,789z M287,838
		c2.3,2.7,7.8,2.2,7,8c2.8,0.1,4.2,3.8,7,1c-0.9,3.2,6.7,6.7,10,5c-0.9-0.3-4.4-2.7-2-3c0,0.6,0.8,1.1,1,0c-2-1.7-1.3,0.1-4,0
		c-1-3.2-6.1-12.9-11-12c-1.7-7.1-16.9-14.3-23-17C277.9,824.6,287.9,829.8,287,838z M340,878c-6.1-1.9-10.2-5.8-13-11
		c0.9,0.6,3.7,2.3,3-1c-5.7,1.3-3.5-5.2-8-5c0.1,1.8-1,2.3-3,2c0-0.6-0.8-1.1-1,0C326.3,866.3,330.6,879,340,878z M146,884
		c4.6,0.4,7.4,2.6,11,4c0.5-5.5,0.6-11.4,2-16c-4.7,0-9.3,0-14,0C144.2,877.1,146.4,879.3,146,884z M142,937c14.9-4.3,7.3-29.6,2-39
		C137.6,904.9,130.3,930.3,142,937z M153,915c-0.2-7.1,0.4-15.1-5-17C150.1,903.2,149,911.6,153,915z"/>
	<path fill-rule="evenodd" clip-rule="evenodd" fill="#FFA508" d="M400,841c-3.7-2-5.9-5.4-6-11c1.6,2.8,3.1,5.6,4,9
		c3.8,0.5,6.4-0.3,8-2c3.2-3.5,6-7.4,8-12C415.3,824.7,408.9,841.5,400,841z"/>
	<path fill-rule="evenodd" clip-rule="evenodd" fill="#FFA508" d="M214,873c2.2,1.5-3.1,12.1-11,10C206.7,879.7,213.9,879.9,214,873
		z"/>
	<path fill-rule="evenodd" clip-rule="evenodd" fill="#FFA508" d="M406,791c4.8-0.4,6.8,10.5,10,15c0.8,4.5-1.5,6.8-1,1
		C412.3,801.3,410.4,794.9,406,791z"/>
	<path fill-rule="evenodd" clip-rule="evenodd" fill="#BFFDFF" d="M710,280c2.3-2.3-2.6,0.8-5,0c1.6,5.4,11.3,2.7,16,5
		c-14.5,6-31.2-5.1-44,3c2.5,1.5,6.1,1.9,10,2c-11.3,7.7-29.7-1.9-42-3c0.9-1.7,3.1-2.2,6-2c-11.1-7.6-19.6-17.8-35-21
		c4.2-2.1,11.3-1.3,16-3c-10.6-2.7-25.5-1.2-31-9c11.5-12.7,26.7,6.8,38,4c0.3-4.3-3.1-4.9-2-10c6.7-5.5,23.4-2.7,32-1
		c9.9-5,29-8.2,39-2c3-7,8.3-11.7,20-10c28.4-9.7,32.6,28.9,56,34c-5.8,4.8-18.7-3.5-25,2c6.8,3.9,24.8-3.4,27,5
		c-3.8,1.2-6.6,3.4-12,3c0.9,2.5,7-0.3,8,2c-23.4,2.8-45.8,5.7-72,3C709.4,281.1,708.8,280.2,710,280z M721,241c3.7-1,9.5,0.1,11-3
		C728.2,235.5,723.1,238.7,721,241z M714,251c4.9-0.1,9-1,12-3c-3-1.4-4-4.6-7-6C717.5,245.2,713.6,245.9,714,251z M749,252
		c-5.2-2.5-6.2-9.1-13-10C738.1,246.9,744.4,253,749,252z M686,245c1.6,5,9.7,7.7,13,3C695.7,246.3,691,241.8,686,245z M652,256
		c10.3-4.3,24.8-2.9,36-4C674.9,254,657.2,243.3,652,256z M717,256c8.1,4.1,16.8,2.2,25-1C734.8,254.1,725.8,256.9,717,256z
		 M698,258c1.7,1.6,6.2,0.5,7,3c-6.5,4.2-16.2-4.5-21,1c9.7,9.9,30.9,21,48,14c-9.5-3.2-27.7,2.4-33-5c0.4-2.9,4.7-2,6-4
		c-3.7-1-9.5,0.1-11-3c7.3-2.7,21.2,1.2,26-4C708.4,263.4,703.8,251.5,698,258z M750,260c0.1,3.6,7.1,5.5,10,3c-2.9-0.8-2.6-4.7-7-4
		C752.8,260.2,751.4,260.1,750,260z M661,276c1.3-1,3.7-0.9,4-3c-3.9,1.2-7.5-3.1-10,0C657.6,273.4,658,276,661,276z"/>
	<path fill-rule="evenodd" clip-rule="evenodd" fill="#BFFDFF" d="M857,298c3.7,0.4-0.4,5.7,2,9c4,0.7,5.7-1,9-1
		c0.1,4.1-3.7,4.3-8,4c-2.7,0.9,1.8,3.5-1,5c-2,0-4,0-6,0c-0.4-2.4,1.8-2.2,1-5c-13.4,0.4-34.9,3.8-36-7c3.6,2.4,7.6,4.4,13,5
		c-2.1-5.2,19.8-8.8,20,0c5.6-0.1,1.5-5.4,2-9C854.6,298.9,856.8,299.5,857,298z"/>
	<path fill-rule="evenodd" clip-rule="evenodd" fill="#BFFDFF" d="M852,338c-0.7,3-4,3.4-8,3c0.1,4.6,6.7,2.6,11,3
		c-11,7.7-29.8,7.6-49,7c1.9-1.9,0.1-2.5,0-5c3-1.4,8.1-4.6,12-2c2.8-2.2-5-2.3-4-6C826.7,333.9,840.3,341.1,852,338z M821,340
		c4,1.7,10.2,0.4,14-1C830.4,339.6,823.3,335.4,821,340z M821,349c7.4-0.2,16.5,1.2,20-3c-6.5,0.1-14.1-3.9-20-1
		C824,345.7,820,347.1,821,349z"/>
	<path fill-rule="evenodd" clip-rule="evenodd" fill="#BFFDFF" d="M833,359c1-3.3,5.3-3.3,10-3c-3,0.6-4.5,2.8-5,6
		c-10.4-1.2-23.9-9.8-34-2c4.9,8.3,21.4,2.4,30,5c0.2,2.2-3.5,0.5-5,1c0.7,2.3,5.6,0.4,8,1c0.6,4.6-5.5,2.5-9,3
		c-1.2-1.3-0.4-1.6,0-3c-5.4,0-7.5,3.2-14,2c0.1-2.2,2.5-2.1,5-2c-7-2.4-18.9,0.2-23-5C799.3,350.6,825.1,354.6,833,359z"/>
	<path fill-rule="evenodd" clip-rule="evenodd" fill="#BFFDFF" d="M575,453c-0.3,2.1-4.4,0.2-4,3c4.2,2,11.8-1.6,16,2
		c0.5,2.1-1.4,1.9-3,2c2.1,2.3,7.4-0.5,10-1c17.9-0.4-2.4,2.5-9,3c-0.4,2.4,4.6-0.6,3,3c-8.7-1.2-31.7,0.8-12-2
		c-3.2-2.4-8.7-2.6-12-5C565.9,454.5,569.9,453.2,575,453z"/>
	<path fill-rule="evenodd" clip-rule="evenodd" fill="#BFFDFF" d="M0,458c4.5,1.3,15.1-2.3,18,3c-7.4,2.5-10.2,7.1-18,5
		C0,463.3,0,460.7,0,458z"/>
	<path fill-rule="evenodd" clip-rule="evenodd" fill="#BFFDFF" d="M507,468c1.2,1.5,1.2,2.5,0,4c2.4,0,2.9,1.7,6,1
		c-0.6,3-11.5-1.7-14,2c0.3,1.4,2.5,0.8,4,1c-12.9,1.5-31.7,0.4-39-7C480.9,468.8,491.9,465.2,507,468z M476,472
		c4.2,1.2,10.8,5.2,16,2c-2.1-0.3-2-2.7-3-4C484.6,470.6,479.4,470.4,476,472z"/>
</g>
<g id="ai">
	<path id="髪の毛輪郭_1_" fill-rule="evenodd" clip-rule="evenodd" fill="#2C5497" d="M1773.4,405.9
		C1705.8,214.1,1608.3,81.7,1475.7,0H894.3C826,49.3,707,221,662.3,373.7c-188,352-161.8,495.5-80.7,706.3h66.7c0,0-0.3-87,6.7-147
		c-1,10,10.3,110,21.3,147h1044C1863.4,871.8,1859.2,626.8,1773.4,405.9z"/>
	<path fill-rule="evenodd" clip-rule="evenodd" fill="#1A3333" d="M1039,1037c17-0.8,29.3,2.3,47.8,3.3c-1-44-10.7-136.8-25.3-168
		c-4-8.5-42.5-3.3-42.5-3.3s-10.5,87-7.5,114s-0.5,60.6-0.5,60.6S1029.6,1038.3,1039,1037z"/>
	<path fill-rule="evenodd" clip-rule="evenodd" fill="#1A3333" d="M1492.6,832.4C1492.6,832.4,1492.6,832.4,1492.6,832.4
		c-3.5,2.8-6.5,4.8-9,5.9c19.5-75.4,50-185.3,14.8-280.5c-19,28-68.2,35.2-79,13.3c-18.2,18.2-27,120.2-26,143.7c-7-8-2.5-17-5.5-17
		c-10,21.5-4,79.5-4,79.5s-4.5-5.5-7-13c-15.5,39.5,19.5,193,19.5,193l25.4-6.2c0,0,9.2,3.1,24.9,5.4c-5.1-20.1-16.1-70.2-13.4-70.2
		c2.5,0,14.8,48.9,23.5,71.7c16.2,2.3,28.4,4.6,32.1,4.4c4-4.1,12.6-27.8,19.8-46.9c-4.9-24.2-14.8-72.2-16.3-73.8
		C1490.3,839.7,1492.6,832.4,1492.6,832.4z M1493.3,831.8c0.8,0.5,2.3,1.8,5,4.5c4.3,4.3,17.4,26.9,25.8,46.1
		c16.4-49.5,32.4-107.5,33.9-125.6C1537.9,786,1510.5,817.7,1493.3,831.8z"/>
	<path fill-rule="evenodd" clip-rule="evenodd" fill="#1A3333" d="M1527.3,1034.3l18.3-13.3l1.7,50.7c0,0-8-2.7-10-4.7
		S1527.3,1034.3,1527.3,1034.3z"/>
	<path fill-rule="evenodd" clip-rule="evenodd" fill="#1A3333" d="M1578.7,998c0,0,6.3-8.7,8.7-8.7s8.7,90.7,8.7,90.7h-18
		c0,0,3-26.7,3-38.3S1578.7,998,1578.7,998z"/>
	<path fill-rule="evenodd" clip-rule="evenodd" fill="#1A3333" d="M1592.5,984.2l28.8-24.2c0,0,2,52-1,62s-13.3,44.3-13.3,44.3
		s-5-44.3-8.7-59.3S1592.5,984.2,1592.5,984.2z"/>
	<path fill-rule="evenodd" clip-rule="evenodd" fill="#1A3333" d="M1631.7,948.3l5.3-3l-5.7,37c0,0,0-6.3,0-10
		S1631.7,953.3,1631.7,948.3z"/>
	<polygon fill-rule="evenodd" clip-rule="evenodd" fill="#1A3333" points="1450,957 1453.3,958 1446.7,938 	"/>
	<path fill-rule="evenodd" clip-rule="evenodd" fill="#1A3333" d="M744.3,880.3C744.3,880.3,744.3,880.3,744.3,880.3
		C744.5,879.9,744.4,880.1,744.3,880.3z M799.7,520.3c0,0-2,15.3-2,24.7C768.3,501,763,441.7,763,441.7c0,14.7-12,101.3-12,110
		s-3,1.7-9.3-4.7c-13.3,74.8-7.2,180.8-0.7,252.7c1.2-3.7,2.1-6.2,2.7-6.7c3-3,66-101.3,85.8-137.3c0,0,22.8-8.7,15.5-1.3
		S774.3,783,765.7,801c-4.1,8.6-11.6,32-18.9,55.6c1.3,12,2.2,19.8,2.2,21.7c0,9.7-1.2,5.6-4.7,2c-0.1,0.4-0.1,0.2,0,0
		c-0.9-2.4-1.8-4.7-2.6-7c-6,19.5-11.2,36.5-13.3,41.7c-5.3,12.7-10.7,68-10.7,74s-5.3-62-5.3-73.3s-0.7-20,5.3-36
		c2.6-6.9,7.3-23.6,12-40.5c-56.9-170.8-42.3-284.9-38-386.9c-55.3,133.3-104.1,227.4-110.1,310.6C563.9,883,603.7,956.3,619.9,1080
		h7.7h14.5c-0.2-26.2-0.3-87.4,2.8-118.3c4-40,21.3-112,30-126s31.3-54,31.3-54s-9.2,38.9-9.2,48.9s-14,56-10.7,96
		c2.8,33.2,5.7,112.5,5.2,153.5h28.8h29.9c0,0,0.1-0.8,0-2.3c8.1-30,13.3-85.2,16-104c4-28,21.7-54.3,39-99.7S863,749,863,749
		l14.7,14.7c0,0-20.7,31.3-30.7,56c-9.1,22.3-54.7,196-75.1,260.3h62.6c10-19.5,34.8-62.4,47.2-87c13.3-26.7,46-117.3,56.7-154.7
		S799.7,520.3,799.7,520.3z"/>
	<path fill-rule="evenodd" clip-rule="evenodd" fill="#1A3333" d="M1511.3,908.7l9.3-20.7c0,0-12.7-28.7-17.7-33.7
		S1511.3,908.7,1511.3,908.7z"/>
	<path fill="#08216E" d="M945,832.7c-2.7,18.7-33.3,111.7-59,160.7s-45.3,86.7-45.3,86.7h39.7c0,0,64.7-99,68.3-114.7
		c2.7,11.3-0.7,34.3-0.7,41.7s-11.3,73-11.3,73h13c0,0,18-44.3,18-61s1.3-116.7,5.7-139.7s5-28.3,5-28.3L945,832.7z"/>
	<path fill="#08216E" d="M1552,1075c0,0,3.8,2.2,7,5.3h14c5.2-47.6,1-79,1-79l-22.3,15.3C1554.7,1031.3,1552,1075,1552,1075z"/>
	<path fill="#08216E" d="M983.3,858c-4.4,33.6-7.7,78.3-7.7,100.3s-2.1,66-4.2,73.3s17.6,26.8,17.6,26.8s7.4-7.3,9-8
		c8.7-3.9,12.9-6.8,12.9-6.8l0.8-0.2c0,0,0.6-29.6,0.6-48.3s6.6-91.4,6.6-126S983.3,858,983.3,858z"/>
	<path fill="#08216E" d="M718.7,937c2.7-19.5,10.8-47.5,19.4-74.1c-1.9-5.5-4.2-12-6.2-17.8C723.6,874,717.5,907.9,718.7,937z
		 M750.3,795.7c-2.5,4.8-5,10.6-7.6,17.1c1,9.2,1.9,18.7,2.8,27.4c5.2-15.5,10.1-29.3,13.5-39.2c31.2-61.5,60.8-110,60.8-110
		l1.9-6.7C821.7,684.3,763.1,770.8,750.3,795.7z"/>
	<path fill-rule="evenodd" clip-rule="evenodd" fill="#69988E" d="M752.3,198.3c-5.2,8.7-54.7,92.6-75.8,151.5
		c-2.5,23.7-2.2,32.9-2.2,43.8c0,13.3,4.8-44.1,18-61.3c-1.9,8.1-12.8,56.8-13,83.7c-7.7-7.7-11-13.8-12.2-33.4
		C651.9,412,587.5,539.8,557,643c-6.4,25.4-11.4,50.2-14.3,73.7c-15.1,119.3,24.3,221,61.7,363.3H615
		c-5.3-58.3-25.7-87.8-41.6-212.9c-14.1-110.9,17.9-199.3,44.2-262.7c34.9-84.1,77-162.8,80.7-179.5
		C703.7,324.3,726.3,273.7,752.3,198.3z"/>
	<path fill-rule="evenodd" clip-rule="evenodd" fill="#69988E" d="M866.1,766.1c-11.7,19.6-45.7,111.9-53.8,134.2
		c-7.9,21.9-36.4,138-51,179.7h21.1c10.3-29.5,31.4-104.2,39.8-137C833,901.7,853,811.7,865,787c2.1-4.2,5.7-8.4,9.3-11.8
		C871.6,772.3,868.7,769.2,866.1,766.1z"/>
	<path fill-rule="evenodd" clip-rule="evenodd" fill="#69988E" d="M763.7,423.7L771,391c0,0,6.7,68,15.3,113.3
		C775.7,474.3,763.7,423.7,763.7,423.7z"/>
	<path fill-rule="evenodd" clip-rule="evenodd" fill="#69988E" d="M754.3,463.7c0,0-4,66-8,66s-4,0-4,0L754.3,463.7z"/>
	<path fill-rule="evenodd" clip-rule="evenodd" fill="#69988E" d="M1609.7,303c6,48,8.6,90.6,5.3,129.9
		c-9.3-32-50.5-125.6-95.4-217.2c-45.9-93.7-78.9-168.4-118.9-206.4c0,0,44.3,105,49,205.7c3.5,76.2-23,166-37,196
		c6.7-48-41.7-222.7-89-297.3c2.3,53.4,11.4,74.8,10,90C1275.6,41,1190.7,0,1190.7,0l-84.3,0c0,0-26.3,24-29,34
		c-4.9,18.2-4.9,0.3-4.9,0.3c-156.8-42-182.8,226.7-186.8,312c34.7-144,65.3-202,100-244.7c36.7-45.2,83.3-28.7,90.7-28.7
		c50-33.3,119.7-5.7,140.3,10.3c-38-44-74-40-74-40c34-6,74.3,13.7,144.7,114c18.9,27,44.7,130.7,53.3,188.7c0-68.7,3-115,3-115
		s8.3,23.8,10.3,32.3c14.7,62.7,45.3,222.7,22.7,341.3c28.7-29.3,31-157,46.7-193.3c10.7-32.8,82.3-86.7,134.7-6.1
		c48.8,75.2-52.3,150.7-52.3,150.7c43.3,78.3,1.5,241.8-10.5,261.8c9.4-9.1,17.2-16.6,23.7-22.9c25.4-28.5,64.2-84.4,79.1-171.9
		c0,0,3.8,39.9-30.9,125.1c0,0,0,0,0.1-0.1c-13.3,106.7-61.8,214-140.1,321C1719.7,914.3,1680.3,471.7,1609.7,303z M1599.7,494.3
		C1587,433,1509.5,335.7,1478.3,194c24.2,35,52.6,77.5,63.6,97.7C1562.4,336.6,1603.8,454.3,1599.7,494.3z"/>
	<path fill-rule="evenodd" clip-rule="evenodd" fill="#CEEFD6" d="M1402,300.7c6-49.3-47-207-114.7-300.7h-79.7
		c0,0,72.3,53.3,115.7,160.7c-7.3-57.3-18.3-74-18.3-85C1305,67.3,1381.7,194.3,1402,300.7z"/>
	<path fill-rule="evenodd" clip-rule="evenodd" fill="#CEEFD6" d="M974.7,41c0,0-57,58-79.7,183.7c-17.9,99.3-17,136-14.7,159
		c-39.3-54-49.1-104-49.1-100.6c0,6.7-0.9,12.6-0.9,12.6s-22.8,50-30,126c-2.8,29.9-9.3,63.3-8.7,82c-12.7-53.2-15.7-98-12.5-136.7
		c51.1-148.4,89.8-209.3,114.5-251C917,88,940.3,55.7,974.7,41z"/>
	<path fill-rule="evenodd" clip-rule="evenodd" fill="#CEEFD6" d="M666,373.7l-0.1,4.9c-0.3,0.6-141.1,256.4-131.5,415.7
		c5.6,92.7,58.3,247.7,65,286h-12c0,0-50-137.3-55-182.7C520.5,791,513.2,660.5,666,373.7z"/>
	<path fill-rule="evenodd" clip-rule="evenodd" fill="#CEEFD6" d="M907.3,810l4.7,2.7c-49.3,54-93.3,238.7-103.9,267.3h-6.7
		c0,0,69.3-232.7,103.3-269.3"/>
	<path fill-rule="evenodd" clip-rule="evenodd" fill="#CEEFD6" d="M1804.3,568.3c17.3,96.7-1.4,339.9-143.7,488.7
		c105-70,154.3-298.7,154.3-372C1823.2,602.6,1805.3,574.2,1804.3,568.3z"/>
	<polygon fill-rule="evenodd" clip-rule="evenodd" fill="#CEEFD6" points="1083,0 1095.3,0 1081.7,15 	"/>
	<path fill-rule="evenodd" clip-rule="evenodd" fill="#CEEFD6" d="M721,243c0,0,39.3-77.3,52.7-90.7c4.7-4.7-21.3,46-21.3,46
		S734.3,222,721,243z"/>
	<path fill-rule="evenodd" clip-rule="evenodd" fill="#CEEFD6" d="M799,118.3c0,0-40,72-49.3,106s-29.1,72.8-38.1,141.9
		C727,275.7,778.1,168.9,799,118.3z"/>
	<path fill-rule="evenodd" clip-rule="evenodd" fill="#CEEFD6" d="M818.8,870.3c0,0-19.1,44.7-25.1,60.7S753,1080,753,1080h10.7
		c5.5-24.8,68.1-237,68.1-237L818.8,870.3z"/>
	<path fill-rule="evenodd" clip-rule="evenodd" fill="#CEEFD6" d="M941.6,1036.2c9-25.2,7.1-70.9,7.1-70.9l-4.2,8.7
		c0,27-26.2,106-26.2,106h5.9C931.4,1065.8,935.8,1052.5,941.6,1036.2z"/>
	<path fill-rule="evenodd" clip-rule="evenodd" fill="#CEEFD6" d="M993.8,1052.8c-0.3,0.3-0.6,0.6-0.9,1
		C996.7,1052.9,997.9,1048.8,993.8,1052.8z M985.7,1051c-8.3-8.3-13.3-22.7-13.3-22.7c-4.3,16-12.4,39.8-18.6,51.7h18.7
		c7.8-10.3,16.6-21.9,20.5-26.2C992.9,1053.8,988.5,1053.8,985.7,1051z"/>
	<path fill-rule="evenodd" clip-rule="evenodd" fill="#56AED2" d="M707.5,787.5c3.4,8-7.9,94.9-7.9,94.9
		c-12,37,10.9,121.6,1.9,197.6H679c-1.7-5.9-18-94.5-18-158.5c0-22,7.2-51,9-61C674,838,696.1,812.9,707.5,787.5z"/>
	<path fill-rule="evenodd" clip-rule="evenodd" fill="#56AED2" d="M861.8,763.8l5,4c-21.5,36-86.9,177.7-93.5,200
		c-3.5,11.7-9.8,24.7-26.8,112.2H743C764,993,741,951,861.8,763.8z"/>
	<path fill-rule="evenodd" clip-rule="evenodd" fill="#56AED2" d="M1497,236.3c0,0,22,89.3,88.3,199.7
		C1579.7,383.7,1539.4,283.5,1497,236.3z"/>
	<path fill-rule="evenodd" clip-rule="evenodd" fill="#2C5497" d="M1022.5,62.2c0,0,18.4-10.7,39-7.3c10.3,1.7,8.8,5.2,1.2,5.2
		S1038,56.2,1022.5,62.2z"/>
	<path fill-rule="evenodd" clip-rule="evenodd" fill="#56AED2" d="M1392,0h-58.3c5.1,12,12,30.9,10.6,32.3
		c-1.6,1.6-21.1-21.8-31.6-32.3H1291c93.5,127,119.5,242.3,126.5,376.5C1471.5,243.5,1436,128,1392,0z"/>
	<path fill-rule="evenodd" clip-rule="evenodd" fill="#56AED2" d="M1777.7,435c-3.5-17.9-56-164.7-118-250
		c-14.1-19.4-40.7-47.3-40.7-47.3s25.8,62.4,33.3,80.8c58.5,144,49.5,190.7,52.8,201.7c16.6,56.1,29.2,343.4-59.3,518.8
		c-1.9,19.8-9.5,57.4-40.3,141h23.3c82.5-72.5,94.4-111,123.6-179c58.5-136.1,59-273.3,48-335.4c-0.5-2.7,17.3,10.7,17.3,119.3
		c0,18.8-20,294.7-178.8,395h75c36.6-46.5,91.6-153.2,109.2-296.9C1837.8,670.2,1820.9,544.3,1777.7,435z"/>
	<path fill-rule="evenodd" clip-rule="evenodd" fill="#56AED2" d="M1582.4,1080h19.6l0.8-4.5c0,0-8.3-75.1-12.4-87.7l-6.8,5.2
		C1583.7,993,1591.8,1048,1582.4,1080z"/>
	<path fill-rule="evenodd" clip-rule="evenodd" fill="#56AED2" d="M1707.7,474.3c-2.5-19.1-9.9-56.7-9.9-87.9
		c0-3.1-3.5-11.3-9.4-36.1c-40.5-169-128.7-310.7-222-350.3h-68c79.2,79.2,170,315,215,409.5c0-34.5-6-109.8-13.5-141.8
		c88.6,190.9,140,637.8-172.2,812.3h14.1c143.2-74.8,196.4-145.6,216.2-184.8C1686,839.3,1727.7,625.7,1707.7,474.3z"/>
	<path fill-rule="evenodd" clip-rule="evenodd" fill="#56AED2" d="M944.5,974c0,0-7,35.5-13,54.5S912,1080,912,1080h-32.5
		c0,0,24.5-38.5,31.5-45.5S940.2,988.5,944.5,974z"/>
	<path fill-rule="evenodd" clip-rule="evenodd" fill="#56AED2" d="M946.5,1024.5L936,1080h-10C926,1080,946.5,1032.5,946.5,1024.5z"
		/>
	<path fill-rule="evenodd" clip-rule="evenodd" fill="#56AED2" d="M1072.3,7.7c0,0-2.2-3.9-8.9-7.7h-49.7
		c-24.4,9.1-56.2,28.8-85.4,61.7c0,0,30.5-39.6,62.6-61.7h-91c-96,78-157.5,239-185.6,363.4C673,569.1,701.5,766,740.5,858
		c-12.5-198-16.5-321.5,30-477c51.4-166.6,120-303.8,204.4-345.5c1.8,4,4.5,9,6.1,7.5c2.5-2.5,14.8-17,76.1-17
		c3.9,1,7.9,2.1,11.9,3.5l4.5-3.5l3.5-26h-6C1072.1,4.6,1072.3,7.7,1072.3,7.7z"/>
	<path fill-rule="evenodd" clip-rule="evenodd" fill="#F7FEFA" d="M1656.9,206.2c-21.6-49.2-67.2-119.8-125.1-161.4
		c44,46.6,126.5,132.1,165.2,337.5C1701,367.6,1695.2,310.6,1656.9,206.2z"/>
	<path fill-rule="evenodd" clip-rule="evenodd" fill="#F7FEFA" d="M1745.6,347c0,0,29.4,69.3,50.5,151.7
		c-32.1-77-36.4-102.4-36.4-102.4L1745.6,347z"/>
	<path fill-rule="evenodd" clip-rule="evenodd" fill="#F7BE8C" d="M1115,866.3c-81.3-470-311-344.3-315.7-377.7c0-1.5,1,33.2,1,33.2
		c7.5,21.9,16.6,47.1,19,108.1c1.9,48,9.7,108.4,135.2,224c18.2,16.8,13,29.5,44.5,29.5c24.7,0,46.9-1.8,52.7,8
		c27.5,47,29.8,188.5,29.8,188.5h24.2l-6.7-54C1099,1026,1167.5,955.5,1115,866.3z"/>
	<polygon fill-rule="evenodd" clip-rule="evenodd" fill="#F7BE8C" points="987,790 1002.5,816.5 1035,812 1051.5,775.5 	"/>
	<polygon fill-rule="evenodd" clip-rule="evenodd" fill="#F7BE8C" points="1428.5,423 1417,533.5 1450,551.5 1520,517.5 1544,500 
		1560,483.1 1565.8,448.8 1545,401.5 1478,382 	"/>
	<path fill-rule="evenodd" clip-rule="evenodd" fill="#FDDABA" d="M1347,259.7c0,0,17.9,264.5-57,385.3
		c-80.1,129.3-136.3,158-292.1,227.6c6.1,6.1,57.5,2,108,2c-18,4.3-40.9,13.1-45.6,15.1c12.7,17.3,26,123.3,26,123.3
		s44,18.7,63.3,12s230.3-92.2,235-126c-9.5-50.9-14.1-113.7-8.7-138c1,2.5,6.3,16.3,6.3,16.3s1.2-58.3,6-83l4,19.3
		c0,0,19.4-125,30-143c-6.7-4.7-16.2-10.2-20.6-18.9c-3.3,13.3-9.1,58.9-27.3,55.6C1375.8,574.7,1392.3,421.7,1347,259.7z"/>
	<path fill-rule="evenodd" clip-rule="evenodd" fill="#FDDABA" d="M1472.8,410c-26,15-41.3,40.3-37.7,46s20.9,28.3-3.3,49.3
		c-4.7,4.1,8.7,29.3,39.7,16.7s35.7-52.7,5.3-63.7c-21.4-7.7-28.3,1-28.3-4c0-5.5,6-23.7,20-21s15,4,15,4s-7.7-18.3,9.7-17.3
		s35.3,5.7,40,20.7s9,42.3,9,42.3s12.8-8.3,13.7-28.3C1556.8,431.3,1521.6,381.8,1472.8,410z"/>
	<path fill-rule="evenodd" clip-rule="evenodd" fill="#FDDABA" d="M919.5,623c0,0-26-12.5-23-28s3,7.5,16.5,1s23.5-14.5,31-9.5
		s11.5,11,11.5,11S946.5,630.5,919.5,623z"/>
	<path fill-rule="evenodd" clip-rule="evenodd" fill="#FDDABA" d="M1004,800c5,5.7,14.5,11,21.5,3s16-18.5,7.5-15.5
		S1000.5,796,1004,800z"/>
	<path fill-rule="evenodd" clip-rule="evenodd" fill="#FEEFDA" d="M1088,1079.5l-2.2-58.2c0,0,46.2,13.8,76.7,2.3
		s96.2-47.4,112.2-52.4s87.4-40.7,109.4-75.7l12,63.5l-76.5,18.5l-90,86l1.5,16.5L1088,1079.5z"/>
	<path fill-rule="evenodd" clip-rule="evenodd" fill="#FEEFDA" d="M1565.5,446c-5.6-38.5-28-91.3-97.5-71c-20.5,6-25,15.5-39,36
		s-23.5,136.5-23.5,136.5s37.3,46.3,78,18C1539.4,526.7,1571,484,1565.5,446z M1561.5,454.5c0,29.9-20.8,44.8-24.2,41.8
		s-5.4-33.8-8.1-49.1s-21.2-22.2-35.8-21.2s1,9.3,5,18s-10.1,2.3-20.8-0.4s-15.3,1-18,6s6.4,0.3,20.7,6.7c15.7,7,54.3,34.3,5.3,65.7
		c-49,31.3-59-12.3-60.3-18c23-20.7,13.3-37.7,8.3-40.7s-14.7-27.2,37.7-58.2s73.9,17,79.2,21.4
		C1554.2,429.5,1561.5,444.7,1561.5,454.5z"/>
	<g>
		<g>
			<path fill-rule="evenodd" clip-rule="evenodd" fill="#FEEFDA" d="M1347.8,276.2c0,0,1.2,81-4.8,93.5c-1.5-23.5-32-144-55-201
				c-26.6-65.9-126.3-129-213.5-94.5c-39.9-4.4-78.8,12-107.1,58.4c-44,85-79.7,207.1-79.7,258.4c-40-30.7-50.7-78.1-53.3-87.3
				c-13.8,21.5-39.3,156.7-34.7,198c16.7,32,19.3,83.7,23.7,115c6.7,47.5,8.2,132,138.7,235c17.6,13.9,28.1,23,39,19.5
				c83-26.2,251.3-109.1,318.2-288.2C1345.2,513.4,1357.2,354.5,1347.8,276.2z M893.1,594.6c4,11.5,22.5,31,22.5,31
				s-48.8-21.8-24.4-50.3c12.9-15,24.3-50.7,23.3-69.2c0,0,6.3,17.8,0.5,35C907.5,563.5,889.1,583.1,893.1,594.6z M1023.4,805.9
				c-10.5,7.5-18-0.5-26-5.5s-0.5-7-0.5-7c6,0.5,30.5-10,40.5-14S1033.9,798.4,1023.4,805.9z"/>
		</g>
	</g>
	<path fill-rule="evenodd" clip-rule="evenodd" fill="#731B1D" d="M914.5,698.5c0.7,13.8,13,21.7,24.4,39.5
		c12.7,19.8,25.4,39.5,44.6,39.5c21,0,133.5-39.8,106-139.5c-11.6-42.1-117.2,1-136,13C925.8,668.6,913.6,680.2,914.5,698.5z"/>
	<path fill-rule="evenodd" clip-rule="evenodd" fill="#C95150" d="M980.7,770.5c22,6,92.9-26.9,102.5-76c4.5-23,5-23.1-11.5-23.5
		C1015.7,669.5,931.6,757.1,980.7,770.5z"/>
	<path fill-rule="evenodd" clip-rule="evenodd" fill="#F7FEFA" d="M953.7,703.5l1,13.5l-21.5,5.5c0,0-18-26-10.5-39.5
		s82.5-62,153-53.5c11.5,1.4,5.9,13.4,1.5,12.5c-9.5-2-64-3-113.5,26.5c-33.8,20.2-37.5,29-28,32.5
		C947.1,705.2,953.7,703.5,953.7,703.5z"/>
	<path fill-rule="evenodd" clip-rule="evenodd" fill="#B2C6B8" d="M1030.7,632c0,0,26-3.5,27,1.5s-5,7-5,7s21.5,1,24.5,1.5
		s12-9.5,1-11.5S1038.2,628.5,1030.7,632z"/>
	<path fill-rule="evenodd" clip-rule="evenodd" fill="#B2C6B8" d="M930.7,696.5c0,0-7.5,7.5-4,15s6.5,11,6.5,11l21.5-5.5l-1-13.5
		C953.7,703.5,930.7,703,930.7,696.5z"/>
	<path fill-rule="evenodd" clip-rule="evenodd" fill="#FDDABA" d="M893.6,595.8c0,0,5.3,20.7,19.1,28.3c15,8.3,21.3-1.3,27.3-6.3
		s11.7-14.8,12.6-18c1.2-4.6-15-20-19-14s-18.3,12.4-23.1,12.6C901.5,598.8,893.6,595.8,893.6,595.8z"/>
	<path fill-rule="evenodd" clip-rule="evenodd" fill="#F7FEFA" d="M1040,461.7c0,0,65.8,3.1,131-25.3c74-32.3-10.6-130-70-114.3
		C1041.7,337.7,1035,406,1040,461.7z"/>
	<path fill-rule="evenodd" clip-rule="evenodd" fill="#F7FEFA" d="M900.8,519.3c0-55.3-49-85.4-63.4-67.1
		c-36.1,46.2-10,113.5-4,117.8C836.1,572,897.8,542.5,900.8,519.3z"/>
	<path fill-rule="evenodd" clip-rule="evenodd" fill="#1B3333" d="M904.8,520c0-36.5-32.9-101.2-68.1-76.5
		c-38.2,26.8-11,129.2-5,127.2s9.7-4.8,9.7-4.8s-5.1,4.6-8.4-2.9c-13.4-30-15.5-94.5,9.7-108c28.8-15.5,53.7,31.5,58.1,64.3
		C901.1,522,904.8,520,904.8,520z"/>
	<path fill-rule="evenodd" clip-rule="evenodd" fill="#1B3333" d="M848.2,449.7c30.4-12.6,49.6,103.1,6.4,104.7
		c-34.4,1.2-27.4-84-20.1-97.3C841.8,443.6,841.1,452.6,848.2,449.7z"/>
	<path fill-rule="evenodd" clip-rule="evenodd" fill="#CEEFD6" d="M844,454.3c9.7-3.3,28.9,2.1,32,44.7
		c3.1,43.3-12.7,51.2-23.3,50.9c-7.1-0.2-18.6-14.7-18.6-55.1C834.1,466.3,836.9,456.8,844,454.3z"/>
	<path fill-rule="evenodd" clip-rule="evenodd" fill="#1B3333" d="M848.2,452.8c9.1-1.4,23.2,14.4,23.2,43.2
		c0,35.9-9.1,40-16.8,40.3c-7.7,0.3-17-15.5-17.6-32.5C836.4,486.7,834,454.9,848.2,452.8z"/>
	<path fill-rule="evenodd" clip-rule="evenodd" fill="#2D5579" d="M850,458.9c-13.4,0-8,31.6-7.3,45.5c0.6,14,3.5,28.2,12.2,28.5
		c12.5,0.4,15.4-30.7,9.5-54.4C859.4,458.1,853.5,458.9,850,458.9z"/>
	<g>
		<path fill-rule="evenodd" clip-rule="evenodd" fill="#1B3333" d="M1057.7,353.7c0,0-2,99.2,46.7,94.7c65.3-6,40.9-132.1-3.4-126.4
			C1071.8,325.7,1071,336.3,1057.7,353.7z"/>
		<path fill-rule="evenodd" clip-rule="evenodd" fill="#CEEFD6" d="M1087.3,331.2c14.8-7.7,48-2,52.3,65.3
			c2.6,40.9-33.5,48.5-42,47.2c-13-1.9-31-27.9-33.2-61.8C1062.5,349.4,1076.8,335.9,1087.3,331.2"/>
		<path fill-rule="evenodd" clip-rule="evenodd" fill="#1B3333" d="M1087.3,331.2c10.1-2.2,28.5-3,38.9,39.6
			c7.7,31.7-2.7,58-25,56.5c-16.3-1.1-30.3-27.8-30.8-40.1S1067.3,335.4,1087.3,331.2z"/>
		<path fill-rule="evenodd" clip-rule="evenodd" fill="#2D5579" d="M1092,341c8.4-0.3,25.3,5.6,30.5,45c3.5,26.4-8.5,39.8-21,38.5
			s-28-29.5-28-46C1073.5,360.8,1078.2,341.5,1092,341z"/>
		<path fill-rule="evenodd" clip-rule="evenodd" fill="#F7FEFA" d="M1147.7,368.2c0-8.3-6.2-18-13.9-18s-13.9,4.7-13.9,18
			c0,8.3,6.2,15,13.9,15S1147.7,376.5,1147.7,368.2z"/>
	</g>
	<path fill-rule="evenodd" clip-rule="evenodd" fill="#1B3333" d="M911,616.2c0,0-10-4-8-7S909.7,613.8,911,616.2z"/>
	<path fill-rule="evenodd" clip-rule="evenodd" fill="#1B3333" d="M932.2,609.2c0,0,6-3.3,6.3-5.3s-0.3-5.7-0.3-5.7
		S931.8,603.5,932.2,609.2z"/>
	<path fill-rule="evenodd" clip-rule="evenodd" fill="#1B3333" d="M1038.7,459.3c0,0-27-111.2,55-140.7
		c90.2-32.4,113.7,76.3,112,93.7c-0.6,6-34.7,24-34.7,24s21.3-15,22-21c-2.7-67.7-54.3-114.8-117-72.3c-7.2,4.9-13.9,17.7-20.2,30.3
		c-13.8,27.8-12.8,64-12.8,82.4C1043,465,1038.7,459.3,1038.7,459.3z"/>
	<path fill-rule="evenodd" clip-rule="evenodd" fill="#F7FEFA" d="M880.5,475.7c0-7.6-4.1-13.7-11.7-13.7s-7.7,6.1-7.7,13.7
		s3.1,13.7,10.7,13.7S880.5,483.3,880.5,475.7z"/>
	<path fill-rule="evenodd" clip-rule="evenodd" fill="#555C61" d="M992.6,294.7c-0.3,4.4,21.7,8.3,27-2s60.3-52.6,82.3-59
		C1088.6,236,997,238.7,992.6,294.7z"/>
	<path fill-rule="evenodd" clip-rule="evenodd" fill="#CEEFD6" d="M997.3,288.7c-2.7,7.8,10.7,7.7,13,4c4-6.2,50.7-44.7,73.7-53.7
		C1077.7,240,1012.3,245.7,997.3,288.7z"/>
	<path fill-rule="evenodd" clip-rule="evenodd" fill="#555C61" d="M817.6,357.6c0,0,18.9-13.9,29.1-18.8
		c3.2,8.1,18.8,30.4,18.8,30.4s-43.1-1.9-51.9,6.9C813.7,366.7,817.6,357.6,817.6,357.6z"/>
	<path fill-rule="evenodd" clip-rule="evenodd" fill="#CEEFD6" d="M817,362.5c0,0,24.2-21.7,32.1-18.9S862,364,862,364
		s-43.7,1.8-46,7S817,362.5,817,362.5z"/>
	<path fill-rule="evenodd" clip-rule="evenodd" fill="#92EFF7" d="M1051.7,73.6c-7,23.2-7.2,30.8-4.4,30.8s17-0.5,18.8-5.5
		s3.2-25.1,3.2-25.1S1058.4,70.6,1051.7,73.6z"/>
	<path fill-rule="evenodd" clip-rule="evenodd" fill="#92EFF7" d="M1126.4,64.1c0,0-1.2,1.2-2.7,4.7s-15.8,48,14,66
		C1168,153,1232,184,1294,184c0,0-4.1-14.2-5.3-15.2c-28.2,0.8-124.2-21.7-143.5-54.7c-12.2-21-4.8-43.8-2.8-48.9
		C1147.4,64.3,1126.4,64.1,1126.4,64.1z"/>
	<path fill-rule="evenodd" clip-rule="evenodd" fill="#92EFF7" d="M1305.4,223.1c-117.3-16-190.1-41.4-213.4-73.7
		c-5.1-7.1-12.7-7.7-22.3-2c-11.4,6.7-10.9,13.8-7.7,21c22,48.7,201.4,72.4,253.7,82.4C1314.1,242.8,1305.4,223.1,1305.4,223.1z"/>
	<path fill-rule="evenodd" clip-rule="evenodd" fill="#92EFF7" d="M933.1,211.9c11.9-9.2,33.2-12.5,30.9-5.9s-7,10-14.7,7
		c-7.7-3-20,8-20,8L933.1,211.9z"/>
	<path fill-rule="evenodd" clip-rule="evenodd" fill="#92EFF7" d="M925.5,232.3c0,0,16.1-8.8,25.7-3.3c10,5.7,18.5,34.2-17,78.3
		c-29.8,37.1-30.3,43.3-34.3,33c0.3,0.9,34.9-55.8,41.2-72c3.6-9.1,8.2-28-6.5-26.7c-12.8,1.2-14,4.7-14,4.7L925.5,232.3z"/>
	<path fill-rule="evenodd" clip-rule="evenodd" fill="#92EFF7" d="M909.7,281.5c0,0,6.7-21.7,18.3-24.7s15.2,6.5,13,11.5
		c-7.3,16.2-27.2,35.9-38.2,32.6C903.1,299.2,909.7,281.5,909.7,281.5L909.7,281.5z"/>
	<path fill-rule="evenodd" clip-rule="evenodd" fill="#92EFF7" d="M1062.8,505.5c-8.2,6.7-14,13.7-10.7,18s9.7,6,20.3-2.7
		s13.3-14,9.3-18S1066.5,502.5,1062.8,505.5z"/>
	<path fill-rule="evenodd" clip-rule="evenodd" fill="#92EFF7" d="M1108.5,497.2c-4.3,0.8-13.7,6.3-1.7,11s230.7-44.3,232-41.3
		s2.7,11.3,2.7,11.3l2.3-28.7c0,0-8.3-27.7-14.3-28.7s-5.4,5-4.3,9.3C1327.8,440.5,1218.8,477.2,1108.5,497.2z"/>
	<path fill-rule="evenodd" clip-rule="evenodd" fill="#92EFF7" d="M1337.3,507.7c0,0-23.4,3.3-31.4,1.7c0,1.7,12.5,66.2,12.5,66.2
		S1335.6,525,1337.3,507.7z"/>
	<path fill-rule="evenodd" clip-rule="evenodd" fill="#92EFF7" d="M1312.8,602c0,0-34.4-57.3-79.7-62.7c-50.8-6-76,9.7-76,9.7l10,13
		c0,0,41.5-18.4,75.3-4.7c47,19,63.4,60,63.4,60S1312.4,606.7,1312.8,602z"/>
	<path fill-rule="evenodd" clip-rule="evenodd" fill="#92EFF7" d="M1263.4,686.4l-13.2-1.1c0,0,0-26.7-16.3-34s-36.8-8.3-47.8,20.6
		c-12.1,31.9,15.3,48.2,20.8,50.6c19.2,8.5,33.5-7.2,33.5-7.2L1263.4,686.4z"/>
	<path fill-rule="evenodd" clip-rule="evenodd" fill="#92EFF7" d="M1153.7,792.8c0,0-42.6-30.7-57.3-106.5c-2.7,4-7.3,19.7-7.3,19.7
		s9.8,55,55.1,95.3L1153.7,792.8z"/>
	<path fill-rule="evenodd" clip-rule="evenodd" fill="#92EFF7" d="M1098.3,828.7c0,0-3.3-44-23.3-42.7s3.7,43,3.7,53.5
		C1086,834.8,1098.3,828.7,1098.3,828.7z"/>
	<polygon fill-rule="evenodd" clip-rule="evenodd" fill="#92EFF7" points="1382.8,955.8 1374.5,936 1367,937.3 1357.8,923.2 
		1355.2,925.2 1372.7,964.7 1377,964 1374.3,957.3 1381.7,957.2 	"/>
	<path fill-rule="evenodd" clip-rule="evenodd" fill="#92EFF7" d="M1362.8,967.2l-14.7-35.3l-28.5,22.2l9,21.3
		C1348.9,970.4,1362.2,967.2,1362.8,967.2z"/>
	<polygon fill-rule="evenodd" clip-rule="evenodd" fill="#92EFF7" points="1316.7,980.2 1308.7,957.8 1296.3,964.2 1305.3,991.2 	
		"/>
	<polygon fill-rule="evenodd" clip-rule="evenodd" fill="#92EFF7" points="1294.7,1001.2 1282.7,970 1263,977.7 1277,1018.1 	"/>
	<path fill-rule="evenodd" clip-rule="evenodd" fill="#5BEEE7" d="M1378.5,500l-39.5,8l-20.7,72l58.6-11.3
		C1376.9,568.7,1382.5,519,1378.5,500z"/>
	<path fill-rule="evenodd" clip-rule="evenodd" fill="#5BEEE7" d="M1344.2,455.2c0,0,11.5,24.5,5,29.5s-8-5.5-8-5.5L1344.2,455.2z"
		/>
	<path fill-rule="evenodd" clip-rule="evenodd" fill="#5BEEE7" d="M1312,604.5c0,0,34,78.5-0.5,118l-59.4-15.4l13.6-19.1l44.8,14
		c0,0,14.8-46.6-4.7-84.6L1312,604.5z"/>
	<path fill-rule="evenodd" clip-rule="evenodd" fill="#5BEEE7" d="M1153.2,792.8c0,0,36.5,20.8,76-6l-3.5,11c0,0-49.7,28.4-83.2,2.3
		L1153.2,792.8z"/>
	<path fill-rule="evenodd" clip-rule="evenodd" fill="#5BEEE7" d="M1078.7,839.5c0,0-0.6,34.4,8.3,29.5
		c16.5-9.1,11.3-40.3,11.3-40.3L1078.7,839.5z"/>
	<path fill-rule="evenodd" clip-rule="evenodd" fill="#5BEEE7" d="M1398.7,675.2c0,0-25.2-17.2-22.7-22.2s6.5-30.5-0.5-30.5
		c-5.1,0-11.5,50-29.5,72.5c-14.8,18.5-63.5,65-63.5,65c-6.5,23,77-63.2,83.5-62.5c10,1,17.7,31.3,17.7,31.3l5.3-27.3l4,13.5
		L1398.7,675.2z"/>
	<path fill-rule="evenodd" clip-rule="evenodd" fill="#92EFF7" d="M1022.5,360.5c-1.5,3.2,0.5,15.5,5,8s49-92,120-71
		c18.5,8,28.5,16.5,28.5,16.5s-3,9.5,2.5,13s13.5-4,13.5-4l5.5,6c0,0-6,7-2,13s12,0.5,12,0.5l6,9.5c0,0-9,4.5-4.5,12s10.5,3.5,28-4
		s33-14.5,26-25.5s-39,6.5-40.5,8s-3-6-3-6s39.5-33,28.5-40.5s-29.5,9.5-41,20s-5-2.5-5-2.5s42.5-44,27.5-49.5s-41,17.5-46.5,34.5
		C1172,289.5,1081.5,237,1022.5,360.5z"/>
	<path fill-rule="evenodd" clip-rule="evenodd" fill="#5BEEE7" d="M1329.4,745.9c-1-0.5-2.2-1-3.4-1.4c-6-2-24,21-24,21l11.2-4.2
		c-14,14.3-31.7,33.2-31.7,33.2l20-9c0,0,7.5-10,10-7.5s2.5,2.5,2.5,2.5l24-4l15,14.5l5.5-30C1358.5,761,1338,741.5,1329.4,745.9z"
		/>
	<path fill-rule="evenodd" clip-rule="evenodd" fill="#92EFF7" d="M829.5,661l5,15.5c0,0,35.5,55.2,45.5,93.7
		c9.8,10.6,12.9,17.3,22.4,26.8C892.4,764,865,680,829.5,661z"/>
	<path fill-rule="evenodd" clip-rule="evenodd" fill="#92EFF7" d="M824.5,629c0,0,11.5-10,16.5-15s13-16.5,13-13.5s-4,13-9.5,18.5
		S827,642,827,642L824.5,629z"/>
	<path fill-rule="evenodd" clip-rule="evenodd" fill="#92EFF7" d="M874.2,580.2c-6.7,11.8-13.2,22.2-17.8,17.8s7.5-20.4,9-24
		C868.2,567.5,879.1,571.6,874.2,580.2z"/>
	<path fill-rule="evenodd" clip-rule="evenodd" fill="#92EFF7" d="M881.3,437.8c-4.2-8.4-47.7-37-69.3-14c-2.6,2.7-4.8,5.5-6.8,8.3
		c-3.8,19.8-6.2,35.6-7,66.4c3.7,14.6,9.8,30.9,17.7,49.4c4.1,9.6-3.7-11.3-2-13s3.5,3.8-2.5-7.5s1.3-10,1.3-10l-2-10.7
		c0,0-8.3-9-4-10s4.3-1,4.3-1v-11.7c0,0-4,1.3-3.3-2.7s-0.3-48,26.5-55c21.1-5.5,43.7,17,46.7,17S882.7,440.5,881.3,437.8z"/>
	<polygon fill-rule="evenodd" clip-rule="evenodd" fill="#5BEEE7" points="1410,561.5 1401.8,551.7 1399,564 	"/>
	<path fill-rule="evenodd" clip-rule="evenodd" fill="#F7BE8C" d="M1118.8,816.8c0,0,83.9-43.7,149.2-136.8
		c103.9-148.1,80.3-396.3,78.1-398.6c0-7.7,0.9-26.9,0.9-26.9c20,119-6.2,303.1-47.6,380.5C1227.1,770,1129,803.8,1118.8,816.8z"/>
	<path fill-rule="evenodd" clip-rule="evenodd" fill="#F7BE8C" d="M1096.2,1014.8c0,0,34.3,10.7,44.3,7.7s26.5-0.5,46.5-14
		s42.2-28.7,54-31c57.8-11.4,132.3-61.5,140.8-94.5c0.6,3.5,2.9,16,2.9,16s-45.7,60.5-142.7,90.4c-23.1,7.1-63.2,43.6-102.9,43.6
		s-40.8-7.1-40.8-7.1L1096.2,1014.8z"/>
	<path fill-rule="evenodd" clip-rule="evenodd" fill="#F7BE8C" d="M1374.5,617c1.5-19.9-9.6,0-6,0c-10.8,86-20,70-87.5,137.5
		c-4.8,4.8-3.7,9.7,2,5C1359,697.5,1368.8,691.2,1374.5,617z"/>
	<path fill-rule="evenodd" clip-rule="evenodd" fill="#F7FEFA" d="M1481,970.3l-57.5-10.3l-101,24l-85.5,82.5l29,22.5h226l11.9,0.3
		l-16.8-9.3l7.5-25.5c0,0-24.7,26.5-95.7,31C1438.6,1057,1481,970.3,1481,970.3z"/>
	<polygon fill-rule="evenodd" clip-rule="evenodd" fill="#F7FEFA" points="1080.1,1044.7 1080.5,1083.5 1044.9,1083.5 
		1004.8,1053.2 1038.5,1041.5 	"/>
	<path fill-rule="evenodd" clip-rule="evenodd" fill="#F7FEFA" d="M1031.5,1083.2c0,0-26.5-26.2-33.5-26.2l-25.8,26.2H1031.5z"/>
	<polygon fill-rule="evenodd" clip-rule="evenodd" fill="#F7FEFA" points="1239,1089 1238,1075.5 1253.5,1089 	"/>
	<polygon fill-rule="evenodd" clip-rule="evenodd" fill="#F7FEFA" points="1524,1046.5 1532,1066.5 1512.5,1085.5 1492.5,1084 
		1503,1057 	"/>
	<polygon fill-rule="evenodd" clip-rule="evenodd" fill="#F7FEFA" points="1563.5,1089 1547,1080 1535.5,1090.5 	"/>
	<polygon fill-rule="evenodd" clip-rule="evenodd" fill="#F7FEFA" points="1559,1086.5 1538.2,1073.2 1529.5,1083.5 	"/>
</g>
</svg>
